<?xml version="1.0" encoding="utf-8"?>
<!-- Generator: Adobe Illustrator 20.1.0, SVG Export Plug-In . SVG Version: 6.00 Build 0)  -->
<svg version="1.1" id="Слой_1" xmlns="http://www.w3.org/2000/svg" xmlns:xlink="http://www.w3.org/1999/xlink" x="0px" y="0px"
	 viewBox="0 0 93.3 29.4" style="enable-background:new 0 0 93.3 29.4;" xml:space="preserve">
<style type="text/css">
	.st0{fill:#FECB39;}
	.st1{fill:#FFFFFF;stroke:#020203;stroke-width:0.5;}
	.st2{clip-path:url(#SVGID_2_);}
	.st3{clip-path:url(#SVGID_4_);fill:url(#SVGID_5_);}
	.st4{clip-path:url(#SVGID_7_);fill:url(#SVGID_8_);}
	.st5{fill:#020203;}
	.st6{fill:#FFCE05;}
	.st7{clip-path:url(#SVGID_10_);fill:url(#SVGID_11_);}
	.st8{filter:url(#Adobe_OpacityMaskFilter);}
	.st9{enable-background:new    ;}
	.st10{fill:url(#SVGID_13_);}
	.st11{mask:url(#SVGID_12_);}
	.st12{clip-path:url(#SVGID_15_);}
	.st13{clip-path:url(#SVGID_17_);fill:url(#SVGID_18_);}
	.st14{clip-path:url(#SVGID_20_);fill:url(#SVGID_21_);}
	.st15{clip-path:url(#SVGID_23_);fill:url(#SVGID_24_);}
	.st16{clip-path:url(#SVGID_26_);fill:url(#SVGID_27_);}
	.st17{clip-path:url(#SVGID_29_);fill:url(#SVGID_30_);}
	.st18{clip-path:url(#SVGID_32_);fill:url(#SVGID_33_);}
	.st19{filter:url(#Adobe_OpacityMaskFilter_1_);}
	.st20{clip-path:url(#SVGID_35_);}
	.st21{clip-path:url(#SVGID_38_);fill:url(#SVGID_39_);}
	.st22{clip-path:url(#SVGID_35_);mask:url(#SVGID_36_);fill:url(#SVGID_40_);}
	.st23{clip-path:url(#SVGID_42_);fill:url(#SVGID_43_);}
	.st24{clip-path:url(#SVGID_45_);fill:url(#SVGID_46_);}
	.st25{clip-path:url(#SVGID_48_);fill:url(#SVGID_49_);}
	.st26{clip-path:url(#SVGID_51_);fill:url(#SVGID_52_);}
	.st27{clip-path:url(#SVGID_54_);fill:url(#SVGID_55_);}
	.st28{clip-path:url(#SVGID_57_);fill:url(#SVGID_58_);}
	.st29{fill:#FFFFFF;}
	.st30{filter:url(#Adobe_OpacityMaskFilter_2_);}
	.st31{clip-path:url(#SVGID_60_);}
	.st32{clip-path:url(#SVGID_63_);fill:url(#SVGID_64_);}
	.st33{clip-path:url(#SVGID_60_);mask:url(#SVGID_61_);}
	.st34{clip-path:url(#SVGID_66_);}
	.st35{filter:url(#Adobe_OpacityMaskFilter_3_);}
	.st36{clip-path:url(#SVGID_68_);fill:url(#SVGID_69_);}
	.st37{clip-path:url(#SVGID_68_);fill:url(#SVGID_70_);}
	.st38{clip-path:url(#SVGID_72_);}
	.st39{clip-path:url(#SVGID_74_);fill:url(#SVGID_75_);}
	.st40{clip-path:url(#SVGID_77_);fill:url(#SVGID_78_);}
	.st41{clip-path:url(#SVGID_80_);fill:url(#SVGID_81_);}
	.st42{filter:url(#Adobe_OpacityMaskFilter_4_);}
	.st43{fill:url(#SVGID_83_);}
	.st44{mask:url(#SVGID_82_);}
	.st45{clip-path:url(#SVGID_85_);}
	.st46{clip-path:url(#SVGID_87_);fill:url(#SVGID_88_);}
	.st47{clip-path:url(#SVGID_90_);fill:url(#SVGID_91_);}
	.st48{clip-path:url(#SVGID_93_);fill:url(#SVGID_94_);}
	.st49{clip-path:url(#SVGID_96_);fill:url(#SVGID_97_);}
	.st50{clip-path:url(#SVGID_99_);fill:url(#SVGID_100_);}
	.st51{clip-path:url(#SVGID_102_);fill:url(#SVGID_103_);}
	.st52{filter:url(#Adobe_OpacityMaskFilter_5_);}
	.st53{clip-path:url(#SVGID_105_);}
	.st54{clip-path:url(#SVGID_108_);fill:url(#SVGID_109_);}
	.st55{clip-path:url(#SVGID_105_);mask:url(#SVGID_106_);fill:url(#SVGID_110_);}
	.st56{clip-path:url(#SVGID_112_);fill:url(#SVGID_113_);}
	.st57{clip-path:url(#SVGID_115_);fill:url(#SVGID_116_);}
	.st58{clip-path:url(#SVGID_118_);fill:url(#SVGID_119_);}
	.st59{clip-path:url(#SVGID_121_);fill:url(#SVGID_122_);}
	.st60{clip-path:url(#SVGID_124_);fill:url(#SVGID_125_);}
	.st61{clip-path:url(#SVGID_127_);fill:url(#SVGID_128_);}
	.st62{filter:url(#Adobe_OpacityMaskFilter_6_);}
	.st63{clip-path:url(#SVGID_130_);}
	.st64{clip-path:url(#SVGID_133_);fill:url(#SVGID_134_);}
	.st65{clip-path:url(#SVGID_130_);mask:url(#SVGID_131_);}
	.st66{clip-path:url(#SVGID_136_);}
	.st67{filter:url(#Adobe_OpacityMaskFilter_7_);}
	.st68{clip-path:url(#SVGID_138_);fill:url(#SVGID_139_);}
	.st69{clip-path:url(#SVGID_138_);fill:url(#SVGID_140_);}
	.st70{fill:#FFFFFF;stroke:#020203;stroke-width:0.46;}
	.st71{clip-path:url(#SVGID_142_);}
	.st72{clip-path:url(#SVGID_144_);fill:url(#SVGID_145_);}
	.st73{clip-path:url(#SVGID_147_);fill:url(#SVGID_148_);}
	.st74{clip-path:url(#SVGID_150_);fill:url(#SVGID_151_);}
	.st75{filter:url(#Adobe_OpacityMaskFilter_8_);}
	.st76{fill:url(#SVGID_153_);}
	.st77{mask:url(#SVGID_152_);}
	.st78{clip-path:url(#SVGID_155_);}
	.st79{clip-path:url(#SVGID_157_);fill:url(#SVGID_158_);}
	.st80{clip-path:url(#SVGID_160_);fill:url(#SVGID_161_);}
	.st81{clip-path:url(#SVGID_163_);fill:url(#SVGID_164_);}
	.st82{clip-path:url(#SVGID_166_);fill:url(#SVGID_167_);}
	.st83{clip-path:url(#SVGID_169_);fill:url(#SVGID_170_);}
	.st84{clip-path:url(#SVGID_172_);fill:url(#SVGID_173_);}
	.st85{filter:url(#Adobe_OpacityMaskFilter_9_);}
	.st86{clip-path:url(#SVGID_175_);}
	.st87{clip-path:url(#SVGID_178_);fill:url(#SVGID_179_);}
	.st88{clip-path:url(#SVGID_175_);mask:url(#SVGID_176_);fill:url(#SVGID_180_);}
	.st89{clip-path:url(#SVGID_182_);fill:url(#SVGID_183_);}
	.st90{clip-path:url(#SVGID_185_);fill:url(#SVGID_186_);}
	.st91{clip-path:url(#SVGID_188_);fill:url(#SVGID_189_);}
	.st92{clip-path:url(#SVGID_191_);fill:url(#SVGID_192_);}
	.st93{clip-path:url(#SVGID_194_);fill:url(#SVGID_195_);}
	.st94{clip-path:url(#SVGID_197_);fill:url(#SVGID_198_);}
	.st95{filter:url(#Adobe_OpacityMaskFilter_10_);}
	.st96{clip-path:url(#SVGID_200_);}
	.st97{clip-path:url(#SVGID_203_);fill:url(#SVGID_204_);}
	.st98{clip-path:url(#SVGID_200_);mask:url(#SVGID_201_);}
	.st99{clip-path:url(#SVGID_206_);}
	.st100{filter:url(#Adobe_OpacityMaskFilter_11_);}
	.st101{clip-path:url(#SVGID_208_);fill:url(#SVGID_209_);}
	.st102{clip-path:url(#SVGID_208_);fill:url(#SVGID_210_);}
	.st103{clip-path:url(#SVGID_212_);}
	.st104{clip-path:url(#SVGID_214_);fill:url(#SVGID_215_);}
	.st105{clip-path:url(#SVGID_217_);fill:url(#SVGID_218_);}
	.st106{clip-path:url(#SVGID_220_);fill:url(#SVGID_221_);}
	.st107{filter:url(#Adobe_OpacityMaskFilter_12_);}
	.st108{fill:url(#SVGID_223_);}
	.st109{mask:url(#SVGID_222_);}
	.st110{clip-path:url(#SVGID_225_);}
	.st111{clip-path:url(#SVGID_227_);fill:url(#SVGID_228_);}
	.st112{clip-path:url(#SVGID_230_);fill:url(#SVGID_231_);}
	.st113{clip-path:url(#SVGID_233_);fill:url(#SVGID_234_);}
	.st114{clip-path:url(#SVGID_236_);fill:url(#SVGID_237_);}
	.st115{clip-path:url(#SVGID_239_);fill:url(#SVGID_240_);}
	.st116{clip-path:url(#SVGID_242_);fill:url(#SVGID_243_);}
	.st117{filter:url(#Adobe_OpacityMaskFilter_13_);}
	.st118{clip-path:url(#SVGID_245_);}
	.st119{clip-path:url(#SVGID_248_);fill:url(#SVGID_249_);}
	.st120{clip-path:url(#SVGID_245_);mask:url(#SVGID_246_);fill:url(#SVGID_250_);}
	.st121{clip-path:url(#SVGID_252_);fill:url(#SVGID_253_);}
	.st122{clip-path:url(#SVGID_255_);fill:url(#SVGID_256_);}
	.st123{clip-path:url(#SVGID_258_);fill:url(#SVGID_259_);}
	.st124{clip-path:url(#SVGID_261_);fill:url(#SVGID_262_);}
	.st125{clip-path:url(#SVGID_264_);fill:url(#SVGID_265_);}
	.st126{clip-path:url(#SVGID_267_);fill:url(#SVGID_268_);}
	.st127{filter:url(#Adobe_OpacityMaskFilter_14_);}
	.st128{clip-path:url(#SVGID_270_);}
	.st129{clip-path:url(#SVGID_273_);fill:url(#SVGID_274_);}
	.st130{clip-path:url(#SVGID_270_);mask:url(#SVGID_271_);}
	.st131{clip-path:url(#SVGID_276_);}
	.st132{filter:url(#Adobe_OpacityMaskFilter_15_);}
	.st133{clip-path:url(#SVGID_278_);fill:url(#SVGID_279_);}
	.st134{clip-path:url(#SVGID_278_);fill:url(#SVGID_280_);}
	.st135{fill:#FFFFFF;stroke:#020203;stroke-width:0.4794;}
	.st136{clip-path:url(#SVGID_282_);}
	.st137{clip-path:url(#SVGID_284_);fill:url(#SVGID_285_);}
	.st138{clip-path:url(#SVGID_287_);fill:url(#SVGID_288_);}
	.st139{clip-path:url(#SVGID_290_);fill:url(#SVGID_291_);}
	.st140{filter:url(#Adobe_OpacityMaskFilter_16_);}
	.st141{fill:url(#SVGID_293_);}
	.st142{mask:url(#SVGID_292_);}
	.st143{clip-path:url(#SVGID_295_);}
	.st144{clip-path:url(#SVGID_297_);fill:url(#SVGID_298_);}
	.st145{clip-path:url(#SVGID_300_);fill:url(#SVGID_301_);}
	.st146{clip-path:url(#SVGID_303_);fill:url(#SVGID_304_);}
	.st147{clip-path:url(#SVGID_306_);fill:url(#SVGID_307_);}
	.st148{clip-path:url(#SVGID_309_);fill:url(#SVGID_310_);}
	.st149{clip-path:url(#SVGID_312_);fill:url(#SVGID_313_);}
	.st150{filter:url(#Adobe_OpacityMaskFilter_17_);}
	.st151{clip-path:url(#SVGID_315_);}
	.st152{clip-path:url(#SVGID_318_);fill:url(#SVGID_319_);}
	.st153{clip-path:url(#SVGID_315_);mask:url(#SVGID_316_);fill:url(#SVGID_320_);}
	.st154{clip-path:url(#SVGID_322_);fill:url(#SVGID_323_);}
	.st155{clip-path:url(#SVGID_325_);fill:url(#SVGID_326_);}
	.st156{clip-path:url(#SVGID_328_);fill:url(#SVGID_329_);}
	.st157{clip-path:url(#SVGID_331_);fill:url(#SVGID_332_);}
	.st158{clip-path:url(#SVGID_334_);fill:url(#SVGID_335_);}
	.st159{clip-path:url(#SVGID_337_);fill:url(#SVGID_338_);}
	.st160{filter:url(#Adobe_OpacityMaskFilter_18_);}
	.st161{clip-path:url(#SVGID_340_);}
	.st162{clip-path:url(#SVGID_343_);fill:url(#SVGID_344_);}
	.st163{clip-path:url(#SVGID_340_);mask:url(#SVGID_341_);}
	.st164{clip-path:url(#SVGID_346_);}
	.st165{filter:url(#Adobe_OpacityMaskFilter_19_);}
	.st166{clip-path:url(#SVGID_348_);fill:url(#SVGID_349_);}
	.st167{clip-path:url(#SVGID_348_);fill:url(#SVGID_350_);}
	.st168{clip-path:url(#SVGID_352_);}
	.st169{clip-path:url(#SVGID_354_);fill:url(#SVGID_355_);}
	.st170{clip-path:url(#SVGID_357_);fill:url(#SVGID_358_);}
	.st171{clip-path:url(#SVGID_360_);fill:url(#SVGID_361_);}
	.st172{filter:url(#Adobe_OpacityMaskFilter_20_);}
	.st173{fill:url(#SVGID_363_);}
	.st174{mask:url(#SVGID_362_);}
	.st175{clip-path:url(#SVGID_365_);}
	.st176{clip-path:url(#SVGID_367_);fill:url(#SVGID_368_);}
	.st177{clip-path:url(#SVGID_370_);fill:url(#SVGID_371_);}
	.st178{clip-path:url(#SVGID_373_);fill:url(#SVGID_374_);}
	.st179{clip-path:url(#SVGID_376_);fill:url(#SVGID_377_);}
	.st180{clip-path:url(#SVGID_379_);fill:url(#SVGID_380_);}
	.st181{clip-path:url(#SVGID_382_);fill:url(#SVGID_383_);}
	.st182{filter:url(#Adobe_OpacityMaskFilter_21_);}
	.st183{clip-path:url(#SVGID_385_);}
	.st184{clip-path:url(#SVGID_388_);fill:url(#SVGID_389_);}
	.st185{clip-path:url(#SVGID_385_);mask:url(#SVGID_386_);fill:url(#SVGID_390_);}
	.st186{clip-path:url(#SVGID_392_);fill:url(#SVGID_393_);}
	.st187{clip-path:url(#SVGID_395_);fill:url(#SVGID_396_);}
	.st188{clip-path:url(#SVGID_398_);fill:url(#SVGID_399_);}
	.st189{clip-path:url(#SVGID_401_);fill:url(#SVGID_402_);}
	.st190{clip-path:url(#SVGID_404_);fill:url(#SVGID_405_);}
	.st191{clip-path:url(#SVGID_407_);fill:url(#SVGID_408_);}
	.st192{filter:url(#Adobe_OpacityMaskFilter_22_);}
	.st193{clip-path:url(#SVGID_410_);}
	.st194{clip-path:url(#SVGID_413_);fill:url(#SVGID_414_);}
	.st195{clip-path:url(#SVGID_410_);mask:url(#SVGID_411_);}
	.st196{clip-path:url(#SVGID_416_);}
	.st197{filter:url(#Adobe_OpacityMaskFilter_23_);}
	.st198{clip-path:url(#SVGID_418_);fill:url(#SVGID_419_);}
	.st199{clip-path:url(#SVGID_418_);fill:url(#SVGID_420_);}
	.st200{fill:none;stroke:#020203;stroke-width:3.3842;}
	.st201{clip-path:url(#SVGID_422_);}
	.st202{clip-path:url(#SVGID_424_);fill:url(#SVGID_425_);}
	.st203{clip-path:url(#SVGID_427_);fill:url(#SVGID_428_);}
	.st204{clip-path:url(#SVGID_430_);fill:url(#SVGID_431_);}
	.st205{filter:url(#Adobe_OpacityMaskFilter_24_);}
	.st206{fill:url(#SVGID_433_);}
	.st207{mask:url(#SVGID_432_);}
	.st208{clip-path:url(#SVGID_435_);}
	.st209{clip-path:url(#SVGID_437_);fill:url(#SVGID_438_);}
	.st210{clip-path:url(#SVGID_440_);fill:url(#SVGID_441_);}
	.st211{clip-path:url(#SVGID_443_);fill:url(#SVGID_444_);}
	.st212{clip-path:url(#SVGID_446_);fill:url(#SVGID_447_);}
	.st213{clip-path:url(#SVGID_449_);fill:url(#SVGID_450_);}
	.st214{clip-path:url(#SVGID_452_);fill:url(#SVGID_453_);}
	.st215{filter:url(#Adobe_OpacityMaskFilter_25_);}
	.st216{clip-path:url(#SVGID_455_);}
	.st217{clip-path:url(#SVGID_458_);fill:url(#SVGID_459_);}
	.st218{clip-path:url(#SVGID_455_);mask:url(#SVGID_456_);fill:url(#SVGID_460_);}
	.st219{clip-path:url(#SVGID_462_);fill:url(#SVGID_463_);}
	.st220{clip-path:url(#SVGID_465_);fill:url(#SVGID_466_);}
	.st221{clip-path:url(#SVGID_468_);fill:url(#SVGID_469_);}
	.st222{clip-path:url(#SVGID_471_);fill:url(#SVGID_472_);}
	.st223{clip-path:url(#SVGID_474_);fill:url(#SVGID_475_);}
	.st224{clip-path:url(#SVGID_477_);fill:url(#SVGID_478_);}
	.st225{filter:url(#Adobe_OpacityMaskFilter_26_);}
	.st226{clip-path:url(#SVGID_480_);}
	.st227{clip-path:url(#SVGID_483_);fill:url(#SVGID_484_);}
	.st228{clip-path:url(#SVGID_480_);mask:url(#SVGID_481_);}
	.st229{clip-path:url(#SVGID_486_);}
	.st230{filter:url(#Adobe_OpacityMaskFilter_27_);}
	.st231{clip-path:url(#SVGID_488_);fill:url(#SVGID_489_);}
	.st232{clip-path:url(#SVGID_488_);fill:url(#SVGID_490_);}
	.st233{clip-path:url(#SVGID_492_);fill:url(#SVGID_493_);}
	.st234{filter:url(#Adobe_OpacityMaskFilter_28_);}
	.st235{fill:url(#SVGID_495_);}
	.st236{mask:url(#SVGID_494_);}
	.st237{clip-path:url(#SVGID_497_);}
	.st238{clip-path:url(#SVGID_499_);fill:url(#SVGID_500_);}
	.st239{clip-path:url(#SVGID_502_);fill:url(#SVGID_503_);}
	.st240{clip-path:url(#SVGID_505_);fill:url(#SVGID_506_);}
	.st241{clip-path:url(#SVGID_508_);fill:url(#SVGID_509_);}
	.st242{clip-path:url(#SVGID_511_);fill:url(#SVGID_512_);}
	.st243{clip-path:url(#SVGID_514_);fill:url(#SVGID_515_);}
	.st244{filter:url(#Adobe_OpacityMaskFilter_29_);}
	.st245{clip-path:url(#SVGID_517_);}
	.st246{clip-path:url(#SVGID_520_);fill:url(#SVGID_521_);}
	.st247{clip-path:url(#SVGID_517_);mask:url(#SVGID_518_);fill:url(#SVGID_522_);}
	.st248{clip-path:url(#SVGID_524_);fill:url(#SVGID_525_);}
	.st249{clip-path:url(#SVGID_527_);fill:url(#SVGID_528_);}
	.st250{clip-path:url(#SVGID_530_);fill:url(#SVGID_531_);}
	.st251{clip-path:url(#SVGID_533_);fill:url(#SVGID_534_);}
	.st252{clip-path:url(#SVGID_536_);fill:url(#SVGID_537_);}
	.st253{clip-path:url(#SVGID_539_);fill:url(#SVGID_540_);}
	.st254{filter:url(#Adobe_OpacityMaskFilter_30_);}
	.st255{clip-path:url(#SVGID_542_);}
	.st256{clip-path:url(#SVGID_545_);fill:url(#SVGID_546_);}
	.st257{clip-path:url(#SVGID_542_);mask:url(#SVGID_543_);}
	.st258{clip-path:url(#SVGID_548_);}
	.st259{filter:url(#Adobe_OpacityMaskFilter_31_);}
	.st260{clip-path:url(#SVGID_550_);fill:url(#SVGID_551_);}
	.st261{clip-path:url(#SVGID_550_);fill:url(#SVGID_552_);}
	.st262{clip-path:url(#SVGID_554_);}
	.st263{clip-path:url(#SVGID_556_);fill:url(#SVGID_557_);}
	.st264{clip-path:url(#SVGID_559_);fill:url(#SVGID_560_);}
	.st265{clip-path:url(#SVGID_562_);fill:url(#SVGID_563_);}
	.st266{filter:url(#Adobe_OpacityMaskFilter_32_);}
	.st267{fill:url(#SVGID_565_);}
	.st268{mask:url(#SVGID_564_);}
	.st269{clip-path:url(#SVGID_567_);}
	.st270{clip-path:url(#SVGID_569_);fill:url(#SVGID_570_);}
	.st271{clip-path:url(#SVGID_572_);fill:url(#SVGID_573_);}
	.st272{clip-path:url(#SVGID_575_);fill:url(#SVGID_576_);}
	.st273{clip-path:url(#SVGID_578_);fill:url(#SVGID_579_);}
	.st274{clip-path:url(#SVGID_581_);fill:url(#SVGID_582_);}
	.st275{clip-path:url(#SVGID_584_);fill:url(#SVGID_585_);}
	.st276{filter:url(#Adobe_OpacityMaskFilter_33_);}
	.st277{clip-path:url(#SVGID_587_);}
	.st278{clip-path:url(#SVGID_590_);fill:url(#SVGID_591_);}
	.st279{clip-path:url(#SVGID_587_);mask:url(#SVGID_588_);fill:url(#SVGID_592_);}
	.st280{clip-path:url(#SVGID_594_);fill:url(#SVGID_595_);}
	.st281{clip-path:url(#SVGID_597_);fill:url(#SVGID_598_);}
	.st282{clip-path:url(#SVGID_600_);fill:url(#SVGID_601_);}
	.st283{clip-path:url(#SVGID_603_);fill:url(#SVGID_604_);}
	.st284{clip-path:url(#SVGID_606_);fill:url(#SVGID_607_);}
	.st285{clip-path:url(#SVGID_609_);fill:url(#SVGID_610_);}
	.st286{filter:url(#Adobe_OpacityMaskFilter_34_);}
	.st287{clip-path:url(#SVGID_612_);}
	.st288{clip-path:url(#SVGID_615_);fill:url(#SVGID_616_);}
	.st289{clip-path:url(#SVGID_612_);mask:url(#SVGID_613_);}
	.st290{clip-path:url(#SVGID_618_);}
	.st291{filter:url(#Adobe_OpacityMaskFilter_35_);}
	.st292{clip-path:url(#SVGID_620_);fill:url(#SVGID_621_);}
	.st293{clip-path:url(#SVGID_620_);fill:url(#SVGID_622_);}
</style>
<g>
	<path class="st5" d="M10.3,0.2v10.4H8.3V1.8H2.9v8.9H0.8v-9c0-0.2,0-0.3-0.2-0.3L0,1.1l0.2-0.9H10.3z"/>
	<path class="st5" d="M17.1,0.2c2.7,0,3.9,1,3.9,3.4c0,2.4-1.2,3.4-3.9,3.4h-2.4v3.7h-2.1v-9c0-0.2,0-0.3-0.2-0.3l-0.6-0.2L12,0.2
		H17.1z M14.6,5.3h2.3c1.4,0,2-0.5,2-1.8c0-1.3-0.6-1.8-2-1.8h-2.3V5.3z"/>
	<path class="st5" d="M27.1,0c3.7,0,5.2,1.6,5.2,5.4s-1.5,5.4-5.2,5.4s-5.2-1.6-5.2-5.4S23.4,0,27.1,0z M27.1,9.2
		c2.2,0,3.1-1.1,3.1-3.8s-0.9-3.8-3.1-3.8c-2.2,0-3.1,1.1-3.1,3.8S24.9,9.2,27.1,9.2z"/>
	<path class="st5" d="M39.1,0.2c2.3,0,3.2,0.9,3.2,2.9c0,1.1-0.4,1.8-1.2,2.2c1.1,0.4,1.6,1.2,1.6,2.5c0,2-1,2.9-3.3,2.9h-5.2v-9
		c0-0.2,0-0.3-0.2-0.3l-0.6-0.2l0.2-0.9H39.1z M36.1,4.6h2.5c1.2,0,1.6-0.4,1.6-1.4c0-1-0.5-1.4-1.6-1.4h-2.5V4.6z M36.1,9.1h2.8
		c1.2,0,1.7-0.5,1.7-1.5c0-1.1-0.5-1.5-1.7-1.5h-2.8V9.1z"/>
	<path class="st5" d="M52,0.2v1.6h-5.5v2.8h4.3v1.5h-4.3v3h5.6v1.6h-7.7v-9c0-0.2,0-0.3-0.2-0.3l-0.6-0.2l0.2-0.9H52z"/>
	<path class="st5" d="M58.3,0.2c2.7,0,3.9,1,3.9,3.4c0,2.4-1.2,3.4-3.9,3.4h-2.4v3.7h-2.1v-9c0-0.2,0-0.3-0.2-0.3L53,1.1l0.2-0.9
		H58.3z M55.9,5.3h2.3c1.4,0,2-0.5,2-1.8c0-1.3-0.6-1.8-2-1.8h-2.3V5.3z"/>
	<path class="st5" d="M65.8,0.2v7.6l5.6-7.6h2v10.4h-1.9V3l-5.6,7.6h-2v-9c0-0.2,0-0.3-0.2-0.3l-0.6-0.2l0.2-0.9H65.8z"/>
	<path class="st5" d="M78,1.8h-3.4V0.2h8.8v1.6h-3.4v8.9H78V1.8z"/>
	<path class="st5" d="M86.9,0.2v3.7h2.5c2.7,0,3.9,1,3.9,3.4c0,2.4-1.2,3.4-3.9,3.4h-4.5v-9c0-0.2,0-0.3-0.2-0.3l-0.6-0.2l0.2-0.9
		H86.9z M86.9,9h2.3c1.4,0,2-0.5,2-1.8c0-1.3-0.6-1.8-2-1.8h-2.3V9z"/>
	<path class="st5" d="M2.9,23.2h5.4v-4.3h2.1v10.4H8.3v-4.5H2.9v4.5H0.8v-9c0-0.2,0-0.3-0.2-0.3L0,19.7l0.2-0.9h2.5
		c0.1,0,0.1,0,0.1,0.2V23.2z"/>
	<path class="st5" d="M17.3,18.8c1.2,2.2,3.2,7.5,3.9,10.4h-2.1c-0.2-0.8-0.5-1.6-0.7-2.4h-4.6c-0.2,0.8-0.5,1.6-0.7,2.4h-2.1
		c0.8-2.9,2.7-8.2,3.9-10.4H17.3z M14.4,25.3H18c-0.6-1.6-1.1-3.1-1.8-4.6C15.5,22.2,14.9,23.7,14.4,25.3z"/>
	<path class="st5" d="M23.9,20.3c0-0.2,0-0.3-0.2-0.3l-0.6-0.2l0.2-0.9H32v10.4h-2.1v-8.9h-4v2.1c0,4.9-1.1,6.8-4,6.8
		c-0.2,0-0.3,0-0.5,0v-1.6h0.2c1.6,0,2.2-1.5,2.2-5.3V20.3z"/>
	<path class="st5" d="M36.2,18.8v7.6l5.6-7.6h2v10.4h-1.9v-7.6l-5.6,7.6h-2v-9c0-0.2,0-0.3-0.2-0.3l-0.6-0.2l0.2-0.9H36.2z"/>
	<path class="st5" d="M45.7,20.3c0-0.2,0-0.3-0.2-0.3l-0.6-0.2l0.2-0.9h2.7v2.7c0,1.6,0.7,2.3,2.4,2.3c0.8,0,1.5-0.1,2.3-0.3v-4.7
		h2.1v10.4h-2.1v-4.2c-0.9,0.2-1.9,0.4-2.8,0.4c-2.8,0-4-1.1-4-3.7V20.3z"/>
	<path class="st5" d="M58.7,18.8v7.6l5.6-7.6h2v10.4h-1.9v-7.6l-5.6,7.6h-2v-9c0-0.2,0-0.3-0.2-0.3L56,19.7l0.2-0.9H58.7z"/>
	<path class="st5" d="M76.1,18.8v1.6h-5.5v2.8H75v1.5h-4.3v3h5.6v1.6h-7.7v-9c0-0.2,0-0.3-0.2-0.3l-0.6-0.2l0.2-0.9H76.1z"/>
</g>
</svg>
